<svg xmlns="http://www.w3.org/2000/svg" xmlns:xlink="http://www.w3.org/1999/xlink" version="1.1" width="256" height="256" viewBox="0 0 256 256" xml:space="preserve">

<defs>
</defs>
<g style="stroke: none; stroke-width: 0; stroke-dasharray: none; stroke-linecap: butt; stroke-linejoin: miter; stroke-miterlimit: 10; fill: none; fill-rule: nonzero; opacity: 1;" transform="translate(1.4065934065934016 1.4065934065934016) scale(2.81 2.81)" >
	<path d="M 89.901 4.021 c -0.029 -0.148 -0.085 -0.285 -0.127 -0.428 c -0.05 -0.169 -0.089 -0.341 -0.157 -0.505 c -0.07 -0.169 -0.166 -0.322 -0.253 -0.481 c -0.069 -0.127 -0.125 -0.258 -0.206 -0.38 c -0.366 -0.548 -0.837 -1.019 -1.386 -1.386 c -0.122 -0.082 -0.255 -0.138 -0.383 -0.208 c -0.158 -0.087 -0.31 -0.182 -0.478 -0.251 c -0.161 -0.067 -0.33 -0.105 -0.496 -0.154 c -0.146 -0.043 -0.286 -0.1 -0.438 -0.13 c -0.307 -0.061 -0.618 -0.091 -0.929 -0.094 C 85.032 0.005 85.017 0 85 0 H 61.386 c -2.762 0 -5 2.239 -5 5 s 2.238 5 5 5 h 11.543 l -24.64 24.64 c -1.953 1.953 -1.953 5.119 0 7.071 c 0.976 0.976 2.256 1.464 3.535 1.464 s 2.56 -0.488 3.535 -1.464 L 80 17.071 v 11.543 c 0 2.761 2.238 5 5 5 s 5 -2.239 5 -5 V 5 C 90 4.672 89.966 4.344 89.901 4.021 z" style="stroke: none; stroke-width: 1; stroke-dasharray: none; stroke-linecap: butt; stroke-linejoin: miter; stroke-miterlimit: 10; fill: rgb(0,0,0); fill-rule: nonzero; opacity: 1;" transform=" matrix(1 0 0 1 0 0) " stroke-linecap="round" />
	<path d="M 34.64 48.289 L 10 72.929 V 61.386 c 0 -2.762 -2.239 -5 -5 -5 s -5 2.238 -5 5 v 23.613 c 0 0.329 0.034 0.657 0.099 0.981 c 0.029 0.146 0.084 0.281 0.125 0.422 c 0.05 0.171 0.09 0.345 0.159 0.511 c 0.069 0.167 0.164 0.318 0.25 0.476 c 0.07 0.128 0.127 0.262 0.209 0.385 c 0.366 0.548 0.838 1.02 1.386 1.386 c 0.12 0.08 0.251 0.135 0.376 0.204 c 0.16 0.088 0.314 0.184 0.484 0.255 c 0.164 0.068 0.335 0.107 0.504 0.156 c 0.143 0.042 0.281 0.098 0.429 0.127 C 4.344 89.966 4.672 90 5 90 h 23.614 c 2.761 0 5 -2.238 5 -5 s -2.239 -5 -5 -5 H 17.071 l 24.641 -24.641 c 1.953 -1.952 1.953 -5.118 0 -7.07 C 39.758 46.336 36.593 46.336 34.64 48.289 z" style="stroke: none; stroke-width: 1; stroke-dasharray: none; stroke-linecap: butt; stroke-linejoin: miter; stroke-miterlimit: 10; fill: rgb(0,0,0); fill-rule: nonzero; opacity: 1;" transform=" matrix(1 0 0 1 0 0) " stroke-linecap="round" />
</g>
</svg>